<?xml version="1.0" encoding="utf-8"?>
<!-- Generator: Adobe Illustrator 17.0.0, SVG Export Plug-In . SVG Version: 6.00 Build 0)  -->
<!DOCTYPE svg PUBLIC "-//W3C//DTD SVG 1.1//EN" "http://www.w3.org/Graphics/SVG/1.1/DTD/svg11.dtd">
<svg version="1.1" id="Warstwa_1" xmlns="http://www.w3.org/2000/svg" xmlns:xlink="http://www.w3.org/1999/xlink" x="0px" y="0px"
	 width="468.358px" height="768px" viewBox="0 0 468.358 768" enable-background="new 0 0 468.358 768" xml:space="preserve">
<g>
	<path fill="#1C262B" d="M386.981,10.862c1.786,1.219,2.272,3.131,2.995,4.778c6.243,14.22,10.937,28.939,14.122,44.148
		c2.512,11.997,4.178,24.09,5.144,36.313c1.279,16.185,1.341,32.406,0.335,48.545c-2.213,35.479-9.054,70.124-20.806,103.737
		c-4.945,14.142-10.686,27.938-18.012,41.033c-1.876,3.354-1.941,3.323-5.156,1.461c-9.676-5.605-19.353-11.21-29.023-16.825
		c-1.654-0.961-2.928-2.212-3.924-3.947c-13.896-24.207-27.866-48.371-41.821-72.543c-0.604-1.047-1.173-2.018-1.106-3.367
		c0.547-11.071,0.119-22.152,0.253-33.229c0.011-0.946,0.058-1.895-0.001-2.837c-0.115-1.824,0.843-2.643,2.496-3.11
		c12.664-3.579,23.722-10.129,33.864-18.375c13.584-11.044,23.993-24.731,32.834-39.673c11.494-19.426,19.609-40.206,24.321-62.293
		c1.548-7.256,2.348-14.612,2.725-22.017C386.245,12.136,386.158,11.583,386.981,10.862z"/>
	<path fill="#1C262B" d="M280.172,176.979c0,5.543-0.046,11.087,0.025,16.629c0.025,1.963-0.476,3.625-1.471,5.341
		c-13.732,23.666-27.411,47.364-41.043,71.089c-1.055,1.836-2.408,3.047-4.234,4.083c-9.499,5.389-18.923,10.908-28.367,16.394
		c-2.846,1.653-2.888,1.732-5.317-0.395c-18.082-15.83-39.529-23.702-63.037-26.704c-9.906-1.265-19.872-1.86-29.842-1.845
		c-4.391,0.007-8.82,0.402-13.222,1.214c-4.714,0.869-9.584,0.742-14.345,1.634c-15.951,2.986-31.553,7.033-46.07,14.535
		c-1.435,0.742-2.807,1.606-4.21,2.41c-0.377,0.216-0.835,0.255-1.083-0.076c-0.212-0.281-0.268-0.728-0.275-1.104
		c-0.012-0.723,0.494-1.2,0.895-1.75c5.871-8.039,12.306-15.589,18.993-22.969c11.35-12.527,24.179-23.362,37.789-33.233
		c19.145-13.884,39.724-25.35,61.401-34.847c20.562-9.008,41.684-16.387,63.451-21.851c17.257-4.332,34.691-7.694,52.48-9.063
		c3.081-0.237,6.19-0.162,9.264-0.658c1.45-0.234,2.977-0.158,4.453-0.03c3.469,0.299,3.751,0.643,3.761,4.161
		C280.184,165.622,280.172,171.301,280.172,176.979z"/>
	<path fill="#1C262B" d="M440.754,456.709c-6.259,1.31-12.087-0.168-17.856-1.11c-20.75-3.388-40.681-9.673-59.812-18.309
		c-21.801-9.842-42.29-22.004-61.56-36.198c-12.781-9.415-25.008-19.481-36.604-30.337c-14.585-13.657-28.38-28.029-40.596-43.861
		c-5.587-7.241-11.072-14.563-15.727-22.466c-2.195-3.727-2.233-3.746,1.684-5.995c7.361-4.225,14.904-8.166,22.029-12.758
		c5.909-3.808,11.96-5.204,19.001-5.102c24.462,0.353,48.932,0.165,73.399,0.101c3.08-0.008,5.757,0.721,8.419,2.283
		c9.181,5.388,18.464,10.601,27.697,15.9c2.943,1.69,2.917,1.717,2.168,5.113c-1.6,7.25-2.753,14.591-2.438,22.012
		c0.562,13.282,3.389,26.163,7.997,38.616c8.816,23.823,22.209,44.841,39.268,63.597c9.571,10.524,19.919,20.108,32.211,27.426
		C440.233,455.737,440.321,456.039,440.754,456.709z"/>
	<path fill="#1C262B" d="M77.565,574.948c2.937,1.02,5.605,2.117,8.181,3.453c12.52,6.491,18.995,16.699,19.157,30.835
		c0.046,4.044,0.017,8.07-0.846,12.077c-1.865,8.662-6.385,15.639-13.13,21.235c-7.295,6.053-15.527,10.102-24.96,11.656
		c-6.745,1.112-13.497,1.947-20.345,1.933c-13.52-0.026-27.04-0.008-40.56-0.008c-0.946,0-1.893-0.015-2.839-0.004
		c-1.449,0.016-2.325-0.533-2.247-2.137c0.039-0.809,0-1.622,0-2.433c0-45.427-0.008-90.853,0.012-136.28
		c0.002-4.345-1.045-4.622,4.586-4.61c12.573,0.026,25.147-0.045,37.72,0.029c6.733,0.04,13.503-0.096,20.189,0.551
		c10.633,1.028,20.623,3.992,28.324,12.104c2.752,2.899,4.798,6.254,5.667,10.118c3.835,17.05-0.793,29.822-15.732,39.318
		C79.752,573.414,78.484,573.673,77.565,574.948z M21.329,612.309c0,7.166-0.001,14.332,0.001,21.497
		c0,0.946-0.006,1.893,0.02,2.839c0.029,1.059,0.297,1.62,1.658,1.598c8.378-0.134,16.763,0.011,25.137-0.221
		c7.859-0.218,15.59-1.242,22.66-5.147c4.767-2.633,8.404-6.161,10.17-11.46c2.596-7.791,1.943-15.408-1.104-22.891
		c-0.986-2.421-2.734-4.279-4.934-5.752c-6.635-4.442-14.098-5.948-21.886-6.061c-9.597-0.139-19.198-0.009-28.797-0.08
		c-2.84-0.021-2.902-0.152-2.914,2.557C21.307,596.896,21.329,604.603,21.329,612.309z M21.329,548.503
		c0,5.806-0.018,11.613,0.007,17.419c0.015,3.404,0.045,3.44,3.264,3.467c9.577,0.08,19.206,0.484,28.699-0.73
		c15.43-1.973,20.491-6.701,21.965-19.48c0.015-0.133,0.088-0.262,0.09-0.394c0.104-7.928-1.719-15.717-11.181-18.201
		c-2.478-0.65-4.932-1.327-7.502-1.529c-10.764-0.847-21.547-0.867-32.332-0.794c-2.945,0.02-2.984,0.043-3,3.228
		C21.307,537.161,21.329,542.832,21.329,548.503z"/>
	<path fill="#1C262B" d="M220.948,638.167c0,5.336-0.017,10.725,0.013,16.113c0.007,1.274-0.626,1.566-1.755,1.583
		c-1.887,0.027-3.772,0.267-5.657,0.269c-28.254,0.019-56.509,0.013-84.763,0.013c-0.676,0-1.354-0.038-2.027,0.005
		c-1.843,0.119-2.831-0.581-2.653-2.567c0.072-0.805,0.007-1.621,0.007-2.432c0-45.288,0-90.576,0-135.864
		c0-0.541-0.01-1.082,0.004-1.622c0.072-2.919,0.074-2.946,2.849-2.996c2.297-0.041,4.596-0.009,6.894-0.009
		c26.632,0,53.264-0.001,79.896,0.001c7.201,0,7.202,0.003,7.201,6.938c0,3.109-0.055,6.22,0.017,9.327
		c0.037,1.578-0.582,2.122-2.136,2.07c-2.701-0.09-5.407-0.024-8.11-0.024c-20.143,0-40.286,0-60.429,0
		c-0.811,0-1.628,0.063-2.432-0.011c-1.735-0.159-2.436,0.569-2.389,2.316c0.077,2.837,0.017,5.677,0.017,8.516
		c0,8.111,0.031,16.223-0.018,24.334c-0.015,2.522,0.062,3.089,3.209,3.07c20.818-0.125,41.638-0.103,62.456-0.045
		c6.059,0.017,4.823-0.355,4.932,4.976c0.074,3.648-0.019,7.3,0.03,10.95c0.019,1.419-0.208,2.278-1.971,2.215
		c-2.15-0.076-4.31,0.241-6.467,0.244c-17.71,0.023-35.419,0.022-53.129,0.001c-2.021-0.003-4.04-0.195-6.061-0.265
		c-2.509-0.087-2.82,0.199-2.976,2.604c-0.017,0.269-0.005,0.541-0.005,0.811c0,15.276,0.013,30.553-0.011,45.829
		c-0.005,3.206,0.127,3.27,3.403,3.256c22.17-0.092,44.341-0.053,66.512-0.042C217.137,637.732,218.893,637.623,220.948,638.167z"/>
	<path fill="#1C262B" d="M234.788,634.808c0.001-3.379-0.006-6.759,0.005-10.138c0.003-0.931-0.206-2.019,0.757-2.582
		c1.241-0.726,2.004,0.378,2.77,1.041c6.288,5.44,13.423,9.386,21.099,12.531c6.278,2.573,12.882,4.439,19.451,4.85
		c9.648,0.604,19.421-0.028,28.336-4.907c7.883-4.314,12.025-14.756,9.739-24.069c-1.884-7.674-6.951-11.805-14.018-14.186
		c-8.068-2.718-16.44-4.195-24.69-6.174c-5.118-1.227-10.244-2.402-15.23-4.149c-10.357-3.63-18.231-10.215-23.741-19.65
		c-0.74-1.267-1.267-2.694-1.68-4.109c-2.313-7.925-2.563-15.927-0.542-23.942c1.937-7.681,6.964-13.375,12.658-18.424
		c9.221-8.178,20.22-12.017,32.483-12.728c7.575-0.439,15.016,0.137,22.526,1.096c9.278,1.185,18.087,3.76,26.762,7.083
		c2.113,0.81,2.882,1.927,2.832,4.172c-0.135,6.08-0.024,12.165-0.072,18.247c-0.007,0.854,0.538,1.988-0.65,2.514
		c-1.067,0.472-2.066,0.288-3.003-0.5c-5.758-4.835-12.438-8.001-19.42-10.591c-6.745-2.503-13.675-3.891-20.922-3.927
		c-6.082-0.03-12.041,0.331-17.704,2.74c-6.622,2.818-11.644,7.092-13.627,14.408c-1.995,7.358,0.725,18.503,10.491,23.142
		c4.531,2.152,9.277,3.635,14.151,4.681c10.113,2.169,20.292,4.175,30.086,7.482c9.804,3.311,18.182,8.796,22.98,18.534
		c2.182,4.429,3.202,9.088,3.35,14.016c0.217,7.233-0.568,14.175-3.777,20.847c-4.348,9.042-11.278,15.323-19.922,19.97
		c-5.147,2.767-10.611,4.491-16.424,5.359c-21.641,3.234-42.36,0.341-62.262-8.771c-2.028-0.928-2.957-1.873-2.836-4.135
		C234.915,641.303,234.787,638.052,234.788,634.808z"/>
	<path fill="#1C262B" d="M417.024,655.615c-6.585,0.953-12.937,0.375-19.265,0.517c-1.74,0.039-2.381-0.931-2.313-2.57
		c0.045-1.079,0.002-2.162,0.002-3.244c0-38.792,0-77.584-0.001-116.376c0-4.779-0.001-4.842-4.598-4.852
		c-14.325-0.032-28.65-0.021-42.975-0.007c-3.797,0.004-3.836,0.019-3.859-3.774c-0.024-3.92,0.098-7.843-0.045-11.758
		c-0.076-2.074,0.546-3.076,2.705-2.901c0.806,0.065,1.621,0.009,2.432,0.009c37.44,0,74.881-0.004,112.321,0.012
		c1.75,0.001,3.5,0.23,5.251,0.262c1.112,0.02,1.774,0.293,1.766,1.579c-0.031,5.388-0.013,10.777-0.013,16.044
		c-1.632,0.671-2.992,0.399-4.318,0.401c-14.463,0.023-28.925,0.016-43.388,0.013c-3.992-0.001-3.702-0.241-3.702,3.732
		c0,39.468,0,78.936,0,118.403C417.024,652.573,417.024,654.039,417.024,655.615z"/>
	<path fill="#1C262B" d="M306.143,249.578c1.348,10.345-8.004,20.979-21.311,21.568c-9.604,0.425-21.18-10.93-21.141-21.426
		c0.038-10.39,11.135-21.984,21.404-21.569C296.879,228.628,307.52,238.692,306.143,249.578z"/>
	<path fill="#1C262B" d="M359.413,679.155c0,3.113,0,6.061,0,9.009c0,8.779,0.026,17.557-0.012,26.335
		c-0.014,3.269,0.486,2.837,2.93,2.78c4.724-0.112,9.461-0.199,14.176,0.038c2.24,0.113,2.971-0.711,3.61-2.671
		c3.012-9.233,6.19-18.412,9.315-27.609c0.651-1.917,1.475-3.788,1.96-5.745c0.572-2.309,1.95-3.002,4.134-2.679
		c0.93,0.138,1.882,0.285,2.813,0.233c1.63-0.09,2.393,0.676,2.859,2.171c1.042,3.339,2.219,6.635,3.342,9.949
		c3.243,9.565,6.509,19.122,9.718,28.699c1.315,3.924,1.23,3.983-2.819,4.104c-3.246,0.097-3.282,0.11-4.359-2.867
		c-0.827-2.284-1.616-4.587-2.292-6.919c-0.472-1.631-1.216-2.45-3.1-2.379c-3.775,0.14-7.563,0.088-11.34-0.036
		c-1.525-0.05-2.149,0.543-2.533,1.93c-0.756,2.724-1.681,5.402-2.509,8.107c-0.439,1.433-1.173,2.159-2.865,2.15
		c-9.452-0.051-18.905,0.022-28.358,0.067c-1.297,0.006-1.831-0.325-1.816-1.866c0.124-13.097,0.126-26.195,0.164-39.292
		c0.002-0.675,0.027-1.351,0.013-2.026c-0.034-1.608,0.855-2.152,2.316-2.007C356.22,678.777,357.677,678.958,359.413,679.155z
		 M396.5,688.771c-3.021,5.47-4.302,10.988-5.873,16.916c4.004-0.584,7.471,0.087,11.23-0.655
		C400.081,699.639,398.366,694.435,396.5,688.771z"/>
	<path fill="#1C262B" d="M453.751,710.134c1.348-2.806,1.711-5.584,2.365-8.251c1.639-6.681,3.175-13.386,4.768-20.078
		c0.273-1.145,0.193-2.621,1.605-3.026c1.727-0.495,3.542-0.072,5.171,0.446c1.028,0.327,0.494,1.627,0.276,2.515
		c-1.544,6.275-3.095,12.548-4.649,18.821c-1.62,6.537-3.228,13.078-4.89,19.605c-0.315,1.239-0.226,3.093-1.646,3.374
		c-2.073,0.409-4.342,0.741-6.401-0.011c-1.243-0.454-1.161-2.044-1.444-3.183c-2.271-9.157-4.489-18.328-6.733-27.492
		c-0.055-0.225-0.219-0.424-0.471-0.895c-2.233,3.489-2.521,7.431-3.483,11.109c-1.567,5.987-2.847,12.05-4.199,18.092
		c-0.397,1.773-1.065,2.992-3.203,2.594c-0.647-0.12-1.354-0.02-2.019,0.077c-2.355,0.343-3.283-0.759-3.829-3.005
		c-2.517-10.358-5.206-20.674-7.844-31.002c-0.735-2.877-1.565-5.731-2.238-8.622c-0.528-2.265-0.254-2.523,2.135-2.572
		c0.54-0.011,1.083,0.063,1.621,0.033c2.254-0.123,3.441,0.957,3.881,3.145c0.584,2.901,1.282,5.78,1.971,8.659
		c1.284,5.369,2.625,10.724,3.878,16.1c0.276,1.185,0.568,2.297,1.582,3.411c1.362-1.285,1.349-2.956,1.708-4.402
		c1.949-7.86,3.795-15.746,5.736-23.608c0.303-1.227,0.189-2.933,1.864-3.248c1.866-0.351,3.81-0.114,5.577,0.544
		c0.942,0.351,0.716,1.644,0.935,2.537c2.059,8.367,4.124,16.733,6.147,25.109C452.198,708.06,452.34,709.212,453.751,710.134z"/>
	<path fill="#1C262B" d="M221.267,723.521c-9.004,0.616-7.417,1.108-9.392-6.474c-1.871-7.183-3.458-14.439-5.239-21.646
		c-0.236-0.956-0.205-2.122-1.415-3.032c-0.944,1.092-1.227,2.384-1.519,3.603c-1.972,8.24-3.883,16.494-5.831,24.74
		c-0.695,2.943-0.717,2.938-4.056,3.073c-4.078,0.164-4.172,0.189-5.184-3.708c-3.293-12.672-6.536-25.357-9.741-38.051
		c-0.806-3.193-0.462-3.516,2.799-3.399c3.726,0.134,3.78,0.169,4.705,4c2.053,8.5,4.098,17.001,6.134,25.505
		c0.187,0.78,0.356,1.547,1.047,2.067c1.188-0.342,1.075-1.426,1.288-2.297c2.146-8.783,4.306-17.563,6.388-26.362
		c0.405-1.711,0.752-2.991,3.007-2.969c3.659,0.036,4.639,0.3,5.278,2.883c1.907,7.703,3.666,15.443,5.54,23.154
		c0.506,2.081,0.832,4.233,1.823,6.182c1.323-0.266,1.213-1.325,1.417-2.167c2.119-8.788,4.226-17.579,6.344-26.367
		c0.941-3.904,0.95-3.909,4.755-3.49c0.8,0.088,1.593,0.25,2.975,0.472C228.674,694.025,224.985,708.716,221.267,723.521z"/>
	<path fill="#1C262B" d="M311.053,701.878c-0.413,6.515-1.36,11.995-5.355,16.547c-1.371,1.562-2.846,2.965-4.632,3.826
		c-11.737,5.66-25.908,2.016-29.249-13.256c-0.958-4.381-0.942-8.857-0.383-13.258c1.053-8.298,5.244-14.839,13.438-17.028
		c12.845-3.431,23.971,3.124,25.831,17.503C310.979,698.346,310.974,700.516,311.053,701.878z M278.336,700.492
		c0.129,5.058,0.683,8.481,2.331,11.676c2.228,4.319,5.967,6.21,10.571,6.131c4.426-0.076,8.192-1.854,10.109-6.176
		c3.233-7.287,3.056-14.44-0.132-21.879c-2.764-6.449-14.987-8.548-19.637-1.34C278.947,692.983,278.542,697.437,278.336,700.492z"
		/>
	<path fill="#1C262B" d="M256.642,704.313c2.419,3.8,5.298,6.498,7.582,9.645c2.249,3.1,5.35,5.579,7.389,9.862
		c-2.51,0-4.471-0.065-6.426,0.02c-1.601,0.07-2.691-0.375-3.757-1.748c-3.625-4.67-7.638-9.046-11.138-13.802
		c-1.654-2.247-3.755-1.799-5.77-1.974c-1.286-0.112-1.134,1.236-1.137,2.159c-0.011,3.779-0.005,7.557-0.007,11.336
		c0,0.81-0.008,1.619-0.01,2.429c-0.002,0.996-0.52,1.461-1.495,1.465c-0.27,0.001-0.541,0-0.809,0.022
		c-4.968,0.427-4.975,0.428-4.976-4.401c-0.004-12.146-0.006-24.291,0.001-36.437c0.003-4.748-0.307-4.247,4.445-4.264
		c3.509-0.013,7.018,0.026,10.526-0.012c2.614-0.028,5.072,0.635,7.358,1.784c7.124,3.58,8.886,14.244,3.35,20.094
		C260.388,701.952,259.073,703.514,256.642,704.313z M243.385,700.17c3.305,0.163,6.126,0.105,8.868-0.625
		c3.37-0.897,5.478-4.295,5.162-8.102c-0.282-3.395-2.327-5.541-5.991-5.966c-2.133-0.248-4.308-0.121-6.458-0.251
		c-1.34-0.081-1.584,0.662-1.583,1.731C243.387,691.254,243.385,695.552,243.385,700.17z"/>
	<path fill="#1C262B" d="M347.765,689.73c-1.733,0.072-2.482-1.076-3.415-1.749c-3.533-2.547-7.433-3.73-11.753-3.565
		c-3.845,0.147-6.544,2.288-8.64,5.267c-4.066,5.779-4.05,16.605-0.331,22.727c3.516,5.788,9.468,6.431,14.008,5.355
		c2.892-0.685,5.578-1.905,7.772-4.01c0.634-0.608,1.424-0.909,2.218-0.567c0.757,0.326,0.469,1.15,0.488,1.791
		c0.175,5.939,0.176,5.954-5.548,8.059c-3.596,1.323-7.313,1.749-11.139,1.569c-8.23-0.388-15.771-7.739-17.142-15.887
		c-0.902-5.361-1-10.694,0.367-16.02c2.307-8.99,10.068-14.847,19.321-14.619c4.1,0.101,7.997,0.839,11.707,2.64
		c1.603,0.779,2.717,1.665,2.401,3.667C347.809,686.103,348.554,687.884,347.765,689.73z"/>
</g>
</svg>
