<?xml version="1.0" encoding="utf-8"?>
<!-- Generator: Adobe Illustrator 17.0.0, SVG Export Plug-In . SVG Version: 6.00 Build 0)  -->
<!DOCTYPE svg PUBLIC "-//W3C//DTD SVG 1.1//EN" "http://www.w3.org/Graphics/SVG/1.1/DTD/svg11.dtd">
<svg version="1.1" id="Capa_1" xmlns="http://www.w3.org/2000/svg" xmlns:xlink="http://www.w3.org/1999/xlink" x="0px" y="0px"
	 width="960px" height="560px" viewBox="0 0 960 560" enable-background="new 0 0 960 560" xml:space="preserve">
<g>
	<g>
		<g>
			<path fill="#FFFFFF" d="M507.097,135.484c0-34.855-28.37-63.226-63.226-63.226h-39.579L368.163,0h-33.88l9.032,72.258h-74.977
				l-27.097-45.161H200v45.161v9.032c0,34.855,28.37,63.226,63.226,63.226h79.908l-9.032,63.226h33.717l36.129-63.226h103.148
				V135.484z M356.999,18.065l27.097,54.194h-22.572l-6.774-54.194H356.999z M218.065,72.258V45.161h12.952l16.258,27.097H218.065z
				 M357.342,189.677h-2.412l6.449-45.161h21.759L357.342,189.677z M434.839,126.452H263.226c-21.813,0-40.058-15.545-44.249-36.129
				h215.862V126.452z M452.903,126.452V91.316c17.658,3.604,31.622,17.477,35.217,35.135H452.903z"/>
			<path fill="#FFFFFF" d="M679.866,343.226h-2.312c-44.186,0-80.134,35.948-80.134,80.134c0,14.172,3.775,28.135,10.911,40.374
				l49,83.982C661.747,555.294,669.939,560,678.71,560s16.963-4.706,21.388-12.284l48.982-83.982
				c7.145-12.23,10.92-26.194,10.92-40.374C760,379.174,724.052,343.226,679.866,343.226z M733.472,454.63l-48.982,83.982
				c-2.403,4.092-9.186,4.092-11.561,0l-49-83.982c-5.528-9.475-8.445-20.286-8.445-31.27c0-34.223,27.846-62.07,62.07-62.07h2.312
				c34.223,0,62.07,27.846,62.07,62.07C741.935,434.343,739.018,445.155,733.472,454.63z"/>
			<path fill="#FFFFFF" d="M678.71,379.355c-24.902,0-45.161,20.259-45.161,45.161c0,24.902,20.259,45.161,45.161,45.161
				c24.902,0,45.161-20.259,45.161-45.161C723.871,399.614,703.612,379.355,678.71,379.355z M678.71,451.613
				c-14.939,0-27.097-12.157-27.097-27.097c0-14.939,12.157-27.097,27.097-27.097c14.939,0,27.097,12.157,27.097,27.097
				C705.806,439.455,693.649,451.613,678.71,451.613z"/>
			<path fill="#FFFFFF" d="M220.973,371.262l-17.234,5.437c2.041,6.449,4.886,12.636,8.472,18.426l15.346-9.511
				C224.766,381.098,222.554,376.275,220.973,371.262z"/>
			<path fill="#FFFFFF" d="M232.76,311.739l-13.865-11.57c-4.363,5.221-8.057,10.965-10.974,17.062l16.303,7.795
				C226.492,320.275,229.364,315.813,232.76,311.739z"/>
			<path fill="#FFFFFF" d="M218.065,352.276c0.009-4.155,0.415-8.292,1.201-12.302l-17.73-3.477
				c-1.003,5.13-1.526,10.432-1.535,15.761c0,1.49,0.036,2.981,0.117,4.453l18.046-0.966
				C218.101,354.588,218.065,353.432,218.065,352.276z"/>
			<path fill="#FFFFFF" d="M225.01,410.905c4.877,4.688,10.351,8.761,16.249,12.112l8.924-15.698
				c-4.606-2.619-8.861-5.799-12.663-9.448L225.01,410.905z"/>
			<path fill="#FFFFFF" d="M233.735,286.314l10.586,14.641c4.281-3.098,8.933-5.645,13.828-7.569l-6.594-16.809
				C245.243,279.061,239.245,282.33,233.735,286.314z"/>
			<path fill="#FFFFFF" d="M699.132,129.044c-6.539-1.698-13.314-2.574-20.142-2.592l-0.054,18.065
				c5.32,0.018,10.586,0.686,15.644,2.014L699.132,129.044z"/>
			<path fill="#FFFFFF" d="M734.375,148.499c-4.959-4.67-10.477-8.68-16.394-11.95l-8.734,15.806
				c4.606,2.547,8.897,5.681,12.763,9.303L734.375,148.499z"/>
			<path fill="#FFFFFF" d="M738.828,188.097l17.161-5.609c-2.105-6.449-5.031-12.618-8.671-18.354l-15.246,9.701
				C734.926,178.288,737.194,183.093,738.828,188.097z"/>
			<path fill="#FFFFFF" d="M727.664,247.764l13.991,11.435c4.317-5.275,7.948-11.064,10.794-17.179l-16.385-7.632
				C733.852,239.156,731.025,243.654,727.664,247.764z"/>
			<rect x="534.194" y="126.452" fill="#FFFFFF" width="18.065" height="18.065"/>
			<path fill="#FFFFFF" d="M741.935,207.742c0,3.929-0.361,7.831-1.066,11.615l17.766,3.315c0.903-4.877,1.364-9.899,1.364-14.93
				c0-1.779-0.063-3.55-0.172-5.302l-18.028,1.111C741.89,204.933,741.935,206.333,741.935,207.742z"/>
			<path fill="#FFFFFF" d="M726.942,273.172l-10.712-14.533c-4.272,3.143-8.897,5.736-13.774,7.714l6.792,16.746
				C715.507,280.551,721.459,277.209,726.942,273.172z"/>
			<rect x="597.961" y="270.968" fill="#FFFFFF" width="18.065" height="18.065"/>
			<rect x="606.632" y="126.452" fill="#FFFFFF" width="18.065" height="18.065"/>
			<rect x="642.761" y="126.452" fill="#FFFFFF" width="18.065" height="18.065"/>
			<path fill="#FFFFFF" d="M689.603,288.31l-2.385-17.902c-2.809,0.37-5.672,0.56-8.508,0.56h-8.355v18.065h8.355
				C682.341,289.032,686.008,288.788,689.603,288.31z"/>
			<rect x="634.181" y="270.968" fill="#FFFFFF" width="18.065" height="18.065"/>
			<path fill="#FFFFFF" d="M260.037,430.73c6.521,1.77,13.286,2.71,20.106,2.8l0.226-18.065c-5.302-0.072-10.559-0.795-15.617-2.159
				L260.037,430.73z"/>
			<rect x="479.286" y="415.484" fill="#FFFFFF" width="18.064" height="18.065"/>
			<path fill="#FFFFFF" d="M271.246,271.582l2.222,17.92c2.556-0.307,5.166-0.47,7.822-0.47h9.132v-18.065h-9.132
				C277.93,270.968,274.552,271.166,271.246,271.582z"/>
			<rect x="453.264" y="270.968" fill="#FFFFFF" width="18.065" height="18.065"/>
			<rect x="515.47" y="415.484" fill="#FFFFFF" width="18.065" height="18.065"/>
			<rect x="525.613" y="270.968" fill="#FFFFFF" width="18.065" height="18.065"/>
			<rect x="561.832" y="270.968" fill="#FFFFFF" width="18.065" height="18.065"/>
			<rect x="570.413" y="126.452" fill="#FFFFFF" width="18.065" height="18.065"/>
			<rect x="551.662" y="415.484" fill="#FFFFFF" width="18.065" height="18.065"/>
			<rect x="443.103" y="415.484" fill="#FFFFFF" width="18.065" height="18.065"/>
			<rect x="489.394" y="270.968" fill="#FFFFFF" width="18.065" height="18.065"/>
			<rect x="344.697" y="270.968" fill="#FFFFFF" width="18.065" height="18.065"/>
			<rect x="308.477" y="270.968" fill="#FFFFFF" width="18.065" height="18.065"/>
			<rect x="417.045" y="270.968" fill="#FFFFFF" width="18.065" height="18.065"/>
			<rect x="298.37" y="415.484" fill="#FFFFFF" width="18.065" height="18.065"/>
			<rect x="334.544" y="415.484" fill="#FFFFFF" width="18.065" height="18.065"/>
			<rect x="370.728" y="415.484" fill="#FFFFFF" width="18.065" height="18.065"/>
			<rect x="406.911" y="415.484" fill="#FFFFFF" width="18.065" height="18.065"/>
			<rect x="380.916" y="270.968" fill="#FFFFFF" width="18.065" height="18.065"/>
		</g>
	</g>
</g>
</svg>
