<?xml version="1.0" encoding="utf-8"?>
<!-- Generator: Adobe Illustrator 17.0.0, SVG Export Plug-In . SVG Version: 6.00 Build 0)  -->
<!DOCTYPE svg PUBLIC "-//W3C//DTD SVG 1.1//EN" "http://www.w3.org/Graphics/SVG/1.1/DTD/svg11.dtd">
<svg version="1.1" id="Capa_1" xmlns="http://www.w3.org/2000/svg" xmlns:xlink="http://www.w3.org/1999/xlink" x="0px" y="0px"
	 width="960px" height="560px" viewBox="0 0 960 560" enable-background="new 0 0 960 560" xml:space="preserve">
<g>
	<g>
		<path fill="#FFFFFF" d="M707.173,318.565c9.576-10.052,15.493-23.613,15.493-38.565c0-26.665-18.751-49-43.745-54.609
			l41.496-132.776C742.771,89.171,760,69.972,760,46.667C760,20.935,739.065,0,713.333,0c-19.441,0-36.12,11.975-43.12,28.924
			L532.285,54.787c-8.045-21.084-28.411-36.12-52.285-36.12c-24.033,0-44.511,15.241-52.444,36.54L292.493,38.323
			C288.536,16.576,269.543,0,246.667,0C220.935,0,200,20.935,200,46.667c0,22.531,16.063,41.384,37.333,45.724v113.885
			C216.063,210.616,200,229.469,200,252c0,23.837,18.041,43.344,41.151,46.107l36.736,58.772
			c-23.38,6.729-40.553,28.271-40.553,53.788c0,14.952,5.917,28.513,15.493,38.565C222.773,455.084,200,481.591,200,513.333v37.333
			c0,5.152,4.172,9.333,9.333,9.333h168c5.161,0,9.333-4.181,9.333-9.333v-28h234.276c4.34,21.271,23.184,37.333,45.724,37.333
			c25.732,0,46.667-20.935,46.667-46.667c0-22.531-16.063-41.384-37.333-45.724v-38.276h74.667c5.161,0,9.333-4.181,9.333-9.333
			v-37.333C760,350.924,737.227,324.417,707.173,318.565z M704,280c0,20.589-16.744,37.333-37.333,37.333
			c-20.589,0-37.333-16.744-37.333-37.333c0-20.589,16.744-37.333,37.333-37.333C687.256,242.667,704,259.411,704,280z
			 M713.333,18.667c15.437,0,28,12.563,28,28s-12.563,28-28,28s-28-12.563-28-28S697.896,18.667,713.333,18.667z M536,74.667
			c0-0.532-0.065-1.045-0.084-1.568l130.937-24.556c0.84,20.664,15.111,37.772,34.347,42.989l-41.552,132.953
			c-17.22,2.165-31.995,12.161-40.684,26.32l-45.78-76.3c-1.316-30.473-23.529-55.599-52.687-61.283
			C530.083,103.18,536,89.619,536,74.667z M481.232,271.992L488.101,224H564c5.161,0,9.333-4.181,9.333-9.333v-3.64l37.688,62.813
			c-0.224,2.025-0.355,4.079-0.355,6.16c0,14.952,5.917,28.513,15.493,38.565c-24.052,4.685-43.4,22.605-50.185,45.855
			l-59.117-51.725C514.841,292.721,500.384,276.463,481.232,271.992z M498.667,317.333c0,15.437-12.563,28-28,28s-28-12.563-28-28
			c0-15.437,12.563-28,28-28S498.667,301.896,498.667,317.333z M480,37.333c20.589,0,37.333,16.744,37.333,37.333
			S500.589,112,480,112c-20.589,0-37.333-16.744-37.333-37.333S459.411,37.333,480,37.333z M452,130.667h56
			c25.732,0,46.667,20.935,46.667,46.667v28H405.333v-28C405.333,151.601,426.268,130.667,452,130.667z M292.064,57.083
			l131.992,16.501c-0.009,0.364-0.056,0.719-0.056,1.083c0,14.952,5.917,28.513,15.493,38.565
			c-28.401,5.535-50.251,29.521-52.565,58.931l-96.451,64.307c-5.423-15.232-18.368-26.908-34.477-30.193V92.391
			C273.883,88.741,287.995,74.807,292.064,57.083z M218.667,46.667c0-15.437,12.563-28,28-28s28,12.563,28,28s-12.563,28-28,28
			S218.667,62.104,218.667,46.667z M218.667,252c0-15.437,12.563-28,28-28s28,12.563,28,28s-12.563,28-28,28
			S218.667,267.437,218.667,252z M261.796,295.932c16.641-5.759,28.905-20.552,30.996-38.575l93.875-62.589v19.899
			c0,5.152,4.172,9.333,9.333,9.333h73.239l-6.785,47.497c-20.319,3.64-35.924,20.449-37.987,41.263l-81.069,72.959
			c-8.437-16.865-25.097-28.915-44.725-30.781L261.796,295.932z M293.333,373.333c20.589,0,37.333,16.744,37.333,37.333
			S313.923,448,293.333,448C272.744,448,256,431.256,256,410.667S272.744,373.333,293.333,373.333z M368,541.333H218.667v-28
			c0-25.732,20.935-46.667,46.667-46.667h56c25.732,0,46.667,20.935,46.667,46.667V541.333z M384.669,497.597
			c-6.085-24.463-25.919-43.512-50.839-48.365c9.585-10.052,15.503-23.613,15.503-38.565c0-1.671-0.103-3.313-0.252-4.956
			l78.465-70.625c7.009,16.949,23.679,28.915,43.12,28.915c19.525,0,36.241-12.087,43.185-29.148l53.293,46.629L384.669,497.597z
			 M620.943,504H409.384l163.949-104.328V420c0,5.152,4.172,9.333,9.333,9.333h74.667v38.276
			C639.077,471.333,624.667,485.744,620.943,504z M694.667,513.333c0,15.437-12.563,28-28,28c-15.437,0-28-12.563-28-28
			s12.563-28,28-28C682.104,485.333,694.667,497.896,694.667,513.333z M741.333,410.667H592v-28
			C592,356.935,612.935,336,638.667,336h56c25.732,0,46.667,20.935,46.667,46.667V410.667z"/>
	</g>
</g>
</svg>
