<?xml version="1.0" encoding="utf-8"?>
<!-- Generator: Adobe Illustrator 17.0.0, SVG Export Plug-In . SVG Version: 6.00 Build 0)  -->
<!DOCTYPE svg PUBLIC "-//W3C//DTD SVG 1.1//EN" "http://www.w3.org/Graphics/SVG/1.1/DTD/svg11.dtd">
<svg version="1.1" id="Capa_1" xmlns="http://www.w3.org/2000/svg" xmlns:xlink="http://www.w3.org/1999/xlink" x="0px" y="0px"
	 width="960px" height="560px" viewBox="0 0 960 560" enable-background="new 0 0 960 560" xml:space="preserve">
<g>
	<g>
		<path fill="#FFFFFF" d="M710.616,303.646L607.927,200.958c-3.65-3.65-9.55-3.65-13.2,0l-55.2,55.2L496.08,282.25h-34.756
			c-1.046,0-2.072,0.215-3.043,0.551l-47.797-17.924l-54.575-54.575c-3.65-3.65-9.55-3.65-13.2,0l-93.354,93.354
			c-3.659,3.65-3.659,9.55-0.009,13.2l55.555,55.555l22.76,30.349c-10.652,10.941-10.596,28.492,0.233,39.321l14.806,14.806
			l28.006,28.006l28.006,28.006l14.797,14.806c5.293,5.284,12.323,8.206,19.81,8.206c7.487,0,14.516-2.913,19.8-8.206l8.206-8.206
			l26.867,26.877c5.293,5.284,12.323,8.206,19.81,8.206c7.487,0,14.516-2.913,19.8-8.206l1.606-1.606
			c5.078-5.088,7.692-11.669,8.038-18.335c6.927-0.355,13.415-3.127,18.353-8.066l1.606-1.606
			c5.078-5.088,7.692-11.669,8.038-18.335c6.927-0.355,13.415-3.127,18.353-8.066l1.606-1.606
			c5.078-5.088,7.692-11.669,8.038-18.335c6.927-0.355,13.415-3.127,18.353-8.066l1.606-1.606
			c8.785-8.794,10.372-21.966,5.013-32.487l36.875-56.087l55.331-55.331C714.266,313.197,714.266,307.297,710.616,303.646z
			 M269.147,310.256l80.153-80.153l42.812,42.812l-80.153,80.153L269.147,310.256z M341.104,428.88c-3.641-3.641-3.641-9.559,0-13.2
			l10.941-10.941c3.519-3.538,9.671-3.538,13.2,0l1.596,1.606c3.641,3.641,3.641,9.559,0,13.2L349.3,437.086L341.104,428.88z
			 M362.501,450.286l17.541-17.541c3.519-3.538,9.671-3.538,13.2,0l1.596,1.606c3.641,3.641,3.641,9.559,0,13.2l-17.532,17.541
			L362.501,450.286z M405.312,493.098l-14.806-14.806l17.541-17.541c3.519-3.538,9.671-3.538,13.2,0l1.596,1.606
			c3.641,3.641,3.641,9.559,0,13.2L405.312,493.098z M450.86,503.563l-10.941,10.941c-3.519,3.538-9.671,3.538-13.2,0l-8.206-8.206
			l17.541-17.541c3.519-3.538,9.671-3.538,13.2,0l1.596,1.606C454.491,494.004,454.491,499.922,450.86,503.563z M600.216,447.551
			l-1.606,1.606c-3.519,3.538-9.671,3.538-13.2,0l-24.141-24.141l-13.2,13.2l24.132,24.141c3.641,3.641,3.641,9.559,0,13.2
			l-1.606,1.606c-3.519,3.538-9.671,3.538-13.2,0l-24.141-24.141l-13.2,13.2l24.132,24.141c3.641,3.641,3.641,9.559,0,13.2
			l-1.606,1.606c-3.519,3.538-9.671,3.538-13.2,0l-24.141-24.141l-13.2,13.2l24.132,24.141c3.641,3.641,3.641,9.559,0,13.2
			l-1.606,1.606c-3.519,3.538-9.671,3.538-13.2,0l-29.938-29.939c2.082-9.093-0.336-19.007-7.403-26.074l-1.596-1.606
			c-4.929-4.929-11.585-7.459-18.335-7.795c-0.289-6.768-2.922-13.452-8.075-18.605l-1.596-1.606
			c-4.929-4.929-11.585-7.459-18.335-7.795c-0.289-6.768-2.922-13.452-8.075-18.605l-1.596-1.606
			c-4.929-4.929-11.585-7.459-18.335-7.795c-0.289-6.768-2.922-13.452-8.075-18.605l-1.596-1.606
			c-9.867-9.858-26.484-10.409-37.276-1.876l-16.878-22.517l83.383-83.383l33.887,12.705l-44.399,38.882
			c-0.056,0.047-0.093,0.112-0.14,0.159c-1.699,1.503-3.183,3.165-4.5,4.929c-0.551,0.737-0.971,1.531-1.456,2.306
			c-0.7,1.12-1.382,2.231-1.932,3.407c-0.485,1.018-0.859,2.054-1.232,3.109c-0.364,1.036-0.681,2.082-0.943,3.146
			c-0.28,1.13-0.523,2.259-0.672,3.426c-0.159,1.158-0.196,2.315-0.233,3.482c-0.028,0.831-0.205,1.624-0.168,2.465
			c0.009,0.261,0.103,0.504,0.121,0.766c0.14,2.166,0.457,4.313,1.027,6.432c0.149,0.551,0.42,1.055,0.597,1.606
			c0.541,1.671,1.176,3.323,1.988,4.91c0.355,0.681,0.794,1.307,1.195,1.96c0.56,0.924,1.018,1.886,1.68,2.763
			c0.308,0.411,0.7,0.719,1.027,1.111c0.588,0.719,1.232,1.372,1.876,2.044c0.99,1.018,2.016,1.979,3.127,2.857
			c0.457,0.364,0.803,0.822,1.279,1.167c0.635,0.467,1.344,0.803,2.007,1.214c0.317,0.196,0.635,0.401,0.962,0.579
			c5.48,3.127,11.669,4.537,17.896,4.173c1.036-0.047,2.035-0.215,3.053-0.364c0.794-0.121,1.587-0.243,2.381-0.42
			c1.279-0.28,2.521-0.635,3.762-1.064c0.551-0.187,1.083-0.42,1.624-0.635c1.242-0.513,2.474-1.036,3.659-1.699
			c0.934-0.513,1.802-1.148,2.698-1.746c0.625-0.439,1.307-0.756,1.904-1.232l0.411-0.327l25.766-20.622l24.953-8.318h23.114
			l52.791,43.942l33.467,33.477C603.857,437.992,603.857,443.91,600.216,447.551z M605.789,413.524l-16.505-16.514l-0.019,0.019
			l-9.942-9.923l-56.012-46.677c-1.68-1.4-3.79-2.166-5.975-2.166h-28.006c-0.999,0-1.998,0.168-2.95,0.485l-28.006,9.335
			c-1.046,0.345-2.016,0.878-2.885,1.559L428.427,371.3c-2.614,2.091-5.76,3.249-8.878,3.445c-0.093,0-0.196-0.009-0.289-0.009
			c-1.176,0.047-2.334-0.121-3.463-0.355c-0.467-0.103-0.952-0.168-1.4-0.317c-1.102-0.345-2.138-0.85-3.099-1.484
			c-0.448-0.28-0.868-0.607-1.288-0.934c-0.448-0.373-0.896-0.756-1.288-1.167c-0.289-0.299-0.579-0.597-0.85-0.924
			c-0.271-0.327-0.495-0.691-0.738-1.036c-1.942-2.81-2.773-6.087-2.53-9.307c0.019-0.215,0.019-0.439,0.047-0.653
			c0.196-1.587,0.644-3.137,1.354-4.584c0.093-0.196,0.224-0.383,0.327-0.579c0.793-1.456,1.783-2.829,3.099-3.977l55.405-48.497
			h33.831c1.69,0,3.351-0.457,4.808-1.335l40.422-24.253l92.159,92.159L605.789,413.524z M648.032,353.068l-89.489-89.489
			l42.812-42.812l89.489,89.489L648.032,353.068z"/>
	</g>
</g>
<g>
	<g>
		<path fill="#FFFFFF" d="M589.284,23.595c-24.235-24.235-63.648-24.235-87.883,0l-21.406,21.406l-21.406-21.406
			c-24.235-24.235-63.648-24.235-87.883,0c-24.235,24.235-24.235,63.648,0,87.883l102.689,102.689c1.82,1.82,4.21,2.735,6.6,2.735
			c2.39,0,4.78-0.915,6.6-2.735l102.689-102.689C613.519,87.244,613.519,47.83,589.284,23.595z M576.084,98.278l-96.089,96.089
			l-96.089-96.089c-16.944-16.944-16.944-44.539,0-61.483c8.477-8.477,19.614-12.705,30.741-12.705
			c11.128,0,22.265,4.229,30.741,12.705l28.006,28.006c3.65,3.65,9.55,3.65,13.2,0l28.006-28.006
			c16.944-16.953,44.539-16.953,61.483,0C593.028,53.739,593.028,81.334,576.084,98.278z"/>
	</g>
</g>
<g>
	<g>
		<path fill="#FFFFFF" d="M234.849,146.728c-3.099,5.601-6.049,11.389-8.766,17.214l16.916,7.898
			c2.53-5.424,5.284-10.829,8.178-16.047L234.849,146.728z"/>
	</g>
</g>
<g>
	<g>
		<path fill="#FFFFFF" d="M255.835,114.335c-3.846,5.125-7.571,10.456-11.053,15.842l15.674,10.138
			c3.249-5.013,6.721-9.979,10.306-14.769L255.835,114.335z"/>
	</g>
</g>
<g>
	<g>
		<path fill="#FFFFFF" d="M207.207,218.62c-1.456,6.245-2.717,12.621-3.725,18.969l18.437,2.95
			c0.952-5.919,2.119-11.865,3.473-17.691L207.207,218.62z"/>
	</g>
</g>
<g>
	<g>
		<path fill="#FFFFFF" d="M218.521,181.727c-2.296,5.975-4.416,12.117-6.301,18.26l17.849,5.471
			c1.755-5.723,3.734-11.464,5.881-17.037L218.521,181.727z"/>
	</g>
</g>
<g>
	<g>
		<path fill="#FFFFFF" d="M245.762,398.382l-16.729,8.299c2.838,5.713,5.928,11.436,9.177,16.99l16.113-9.447
			C251.288,409.043,248.404,403.712,245.762,398.382z"/>
	</g>
</g>
<g>
	<g>
		<path fill="#FFFFFF" d="M310.027,59.639c-5.125,3.921-10.148,8.038-14.927,12.248l12.341,14.003
			c4.453-3.921,9.139-7.767,13.928-11.436L310.027,59.639z"/>
	</g>
</g>
<g>
	<g>
		<path fill="#FFFFFF" d="M281.068,85.134c-4.528,4.556-8.943,9.326-13.116,14.162l14.134,12.201
			c3.902-4.509,8.019-8.962,12.239-13.219L281.068,85.134z"/>
	</g>
</g>
<g>
	<g>
		<path fill="#FFFFFF" d="M201.074,256.764c-0.569,6.395-0.934,12.873-1.074,19.268l18.671,0.401
			c0.131-5.965,0.467-12.015,0.999-18.008L201.074,256.764z"/>
	</g>
</g>
<g>
	<g>
		<path fill="#FFFFFF" d="M223.012,330.243l-18.363,3.389c1.158,6.264,2.558,12.612,4.173,18.867l18.083-4.668
			C225.402,342.005,224.085,336.087,223.012,330.243z"/>
	</g>
</g>
<g>
	<g>
		<path fill="#FFFFFF" d="M218.895,294.451l-18.652,0.85c0.289,6.385,0.803,12.855,1.54,19.25l18.549-2.138
			C219.642,306.438,219.165,300.398,218.895,294.451z"/>
	</g>
</g>
<g>
	<g>
		<path fill="#FFFFFF" d="M232.011,365.101l-17.709,5.909c2.026,6.068,4.294,12.155,6.749,18.092l17.252-7.123
			C236.016,376.444,233.897,370.768,232.011,365.101z"/>
	</g>
</g>
<g>
	<g>
		<path fill="#FFFFFF" d="M286.259,457.745l-13.816,12.547c4.332,4.78,8.859,9.438,13.443,13.835l12.929-13.452
			C294.539,466.558,290.31,462.207,286.259,457.745z"/>
	</g>
</g>
<g>
	<g>
		<path fill="#FFFFFF" d="M373.161,520.871l-7.655,17.028c5.844,2.623,11.865,5.088,17.896,7.291l6.432-17.513
			C384.215,525.613,378.604,523.326,373.161,520.871z"/>
	</g>
</g>
<g>
	<g>
		<path fill="#FFFFFF" d="M312.23,482.717l-11.977,14.311c4.91,4.108,10.026,8.103,15.207,11.875l10.988-15.095
			C321.602,490.279,316.823,486.554,312.23,482.717z"/>
	</g>
</g>
<g>
	<g>
		<path fill="#FFFFFF" d="M341.375,503.899l-9.914,15.805c5.452,3.426,11.081,6.693,16.72,9.69l8.785-16.468
			C351.709,510.126,346.472,507.092,341.375,503.899z"/>
	</g>
</g>
<g>
	<g>
		<path fill="#FFFFFF" d="M263.957,429.45l-15.422,10.53c3.622,5.302,7.468,10.549,11.436,15.571l14.647-11.585
			C270.921,439.28,267.327,434.407,263.957,429.45z"/>
	</g>
</g>
<g>
	<g>
		<path fill="#FFFFFF" d="M647.164,483.193c-4.621,3.837-9.41,7.562-14.236,11.053l10.941,15.133
			c5.172-3.734,10.306-7.72,15.245-11.837L647.164,483.193z"/>
	</g>
</g>
<g>
	<g>
		<path fill="#FFFFFF" d="M650.627,60.162l-11.398,14.787c4.733,3.65,9.41,7.515,13.91,11.482l12.369-13.984
			C660.7,68.19,655.696,64.064,650.627,60.162z"/>
	</g>
</g>
<g>
	<g>
		<path fill="#FFFFFF" d="M673.209,458.296c-4.08,4.481-8.318,8.813-12.584,12.883l12.892,13.508
			c4.584-4.378,9.121-9.018,13.49-13.807L673.209,458.296z"/>
	</g>
</g>
<g>
	<g>
		<path fill="#FFFFFF" d="M695.605,430.075c-3.37,4.901-6.983,9.783-10.717,14.507l14.628,11.595
			c4.005-5.05,7.86-10.278,11.473-15.525L695.605,430.075z"/>
	</g>
</g>
<g>
	<g>
		<path fill="#FFFFFF" d="M586.157,521.179c-5.47,2.437-11.09,4.705-16.692,6.749l6.385,17.541
			c6.012-2.175,12.033-4.612,17.905-7.235L586.157,521.179z"/>
	</g>
</g>
<g>
	<g>
		<path fill="#FFFFFF" d="M617.972,504.291c-5.125,3.183-10.372,6.208-15.609,8.981l8.747,16.505
			c5.62-2.969,11.249-6.217,16.729-9.634L617.972,504.291z"/>
	</g>
</g>
<g>
	<g>
		<path fill="#FFFFFF" d="M704.66,115.007l-14.974,11.156c3.566,4.789,7.02,9.774,10.278,14.815l15.693-10.12
			C712.184,125.472,708.478,120.141,704.66,115.007z"/>
	</g>
</g>
<g>
	<g>
		<path fill="#FFFFFF" d="M741.749,182.464l-17.438,6.656c2.119,5.564,4.08,11.286,5.825,17.037l17.868-5.433
			C746.128,194.572,744.027,188.42,741.749,182.464z"/>
	</g>
</g>
<g>
	<g>
		<path fill="#FFFFFF" d="M713.902,399.035c-2.679,5.359-5.583,10.698-8.617,15.823l16.085,9.503
			c3.249-5.508,6.357-11.221,9.233-16.972L713.902,399.035z"/>
	</g>
</g>
<g>
	<g>
		<path fill="#FFFFFF" d="M725.543,147.457l-16.365,8.99c2.894,5.265,5.639,10.68,8.14,16.085l16.934-7.86
			C731.574,158.892,728.643,153.095,725.543,147.457z"/>
	</g>
</g>
<g>
	<g>
		<path fill="#FFFFFF" d="M679.529,85.731l-13.303,13.107c4.192,4.248,8.299,8.719,12.201,13.266l14.171-12.164
			C688.417,95.076,684.02,90.287,679.529,85.731z"/>
	</g>
</g>
<g>
	<g>
		<path fill="#FFFFFF" d="M758.973,257.52l-18.596,1.624c0.523,5.956,0.84,12.005,0.952,17.989L760,276.789
			C759.879,270.375,759.533,263.887,758.973,257.52z"/>
	</g>
</g>
<g>
	<g>
		<path fill="#FFFFFF" d="M752.98,219.386l-18.204,4.173c1.335,5.816,2.483,11.772,3.417,17.69l18.447-2.903
			C755.65,231.998,754.408,225.622,752.98,219.386z"/>
	</g>
</g>
<g>
	<g>
		<path fill="#FFFFFF" d="M727.756,365.792c-1.914,5.657-4.052,11.342-6.348,16.878l17.242,7.17
			c2.455-5.928,4.742-12.015,6.796-18.083L727.756,365.792z"/>
	</g>
</g>
<g>
	<g>
		<path fill="#FFFFFF" d="M741.068,295.17c-0.289,5.993-0.793,12.033-1.484,17.971l18.54,2.166
			c0.747-6.339,1.288-12.808,1.596-19.221L741.068,295.17z"/>
	</g>
</g>
<g>
	<g>
		<path fill="#FFFFFF" d="M736.858,330.934c-1.102,5.863-2.427,11.772-3.949,17.578l18.073,4.724
			c1.624-6.227,3.043-12.565,4.229-18.839L736.858,330.934z"/>
	</g>
</g>
</svg>
